#!OML:ASF X:\für Bonn\!DataBase\2005_08_11_Bastian_Final\c3d\Bastian.ASF
:FULLY-SPECIFIED
:DEGREES
32
root 4.11413 22.0636 -13.4154 718.204 4.2516 -3.99491
lowerback -1.51817 -2.73239 -0.565419
upperback 0.514852 -3.62816 -0.266627
thorax 1.3947 -1.81635 -0.0554794
lowerneck -12.3079 -3.72214 -2.13005
upperneck 4.69546 -5.29221 8.04481
head 3.681 -2.25564 2.44487
rclavicle -1.717e-014 -4.77083e-015
rhumerus -49.9211 20.7249 -76.7262
rradius 122.569
rwrist 3.20518
rhand -10.0268 26.3459
rfingers 7.12502
rthumb 15.9579 -3.01678
lclavicle -1.717e-014 -4.77083e-015
lhumerus -34.1499 -6.96069 67.7828
lradius 130.562
lwrist 219.181
lhand -28.8862 15.991
lfingers 7.12502
lthumb -2.24176 45.9589
rfemur -4.38016 -2.99549 29.6883
rtibia 49.1776
rfoot 18.1429 -8.02163
rtoes 5.70499
lfemur -7.44092 -0.985792 -13.8391
ltibia 45.2032
lfoot 18.311 -6.37857
ltoes -31.6741
33
root 4.10634 22.2217 -13.2375 717.85 4.01329 -4.09754
lowerback -0.640882 -2.65565 -0.337411
upperback 0.781714 -3.5346 -0.259849
thorax 1.16292 -1.7683 -0.135447
lowerneck -12.6758 -3.7707 -2.16991
upperneck 4.86224 -5.36982 8.13465
head 3.79934 -2.2773 2.46701
rclavicle 3.09359e-015 7.15625e-015
rhumerus -50.2851 20.7017 -76.5435
rradius 123.779
rwrist 3.64217
rhand -10.0889 26.5598
rfingers 7.12502
rthumb 15.898 -2.80758
lclavicle 3.09359e-015 7.15625e-015
lhumerus -34.7393 -7.03895 68.1441
lradius 133.023
lwrist 219.328
lhand -29.4207 16.8899
lfingers 7.12502
lthumb -2.75796 46.8519
rfemur -4.74979 -3.66627 29.4926
rtibia 49.3405
rfoot 16.8574 -9.00646
rtoes 7.91553
lfemur -7.15947 -0.0668785 -13.7569
ltibia 44.3449
lfoot 17.4511 -5.64065
ltoes -31.7489
34
root 4.0985 22.3621 -13.0629 717.625 3.79292 -4.22359
lowerback 0.106284 -2.60303 -0.13279
upperback 1.03127 -3.46891 -0.20353
thorax 0.991362 -1.7344 -0.160275
lowerneck -13.1069 -3.81929 -2.27946
upperneck 5.06673 -5.44033 8.2463
head 3.94176 -2.29297 2.50648
rclavicle -3.06563e-014 -7.15625e-015
rhumerus -50.6327 20.685 -76.4016
rradius 124.951
rwrist 4.1185
rhand -9.92623 26.5898
rfingers 7.12502
rthumb 16.0547 -2.76509
lclavicle -3.06563e-014 -7.15625e-015
lhumerus -35.3243 -7.17897 68.5977
lradius 135.032
lwrist 219.297
lhand -29.7089 18.2354
lfingers 7.12502
lthumb -3.03631 48.1936
rfemur -5.22193 -4.03804 29.3851
rtibia 49.2031
rfoot 15.7632 -9.19628
rtoes 7.69942
lfemur -7.06439 0.760688 -13.6467
ltibia 43.5077
lfoot 16.3723 -4.6141
ltoes -30.9449
35
root 4.08977 22.4822 -12.892 717.531 3.59803 -4.3464
lowerback 0.710032 -2.56591 0.0522378
upperback 1.27324 -3.42051 -0.150186
thorax 0.893666 -1.70905 -0.18543
lowerneck -13.6097 -3.85379 -2.3319
upperneck 5.32058 -5.50231 8.33232
head 4.10841 -2.30126 2.52838
rclavicle 1.59292e-014 -7.95139e-015
rhumerus -50.997 20.546 -76.3959
rradius 126.029
rwrist 4.3449
rhand -9.76959 26.7874
rfingers 7.12502
rthumb 16.2055 -2.55523
lclavicle 1.59292e-014 -7.95139e-015
lhumerus -35.8821 -7.34726 68.9607
lradius 136.722
lwrist 219.37
lhand -30.2166 19.3562
lfingers 7.12502
lthumb -3.52665 49.3068
rfemur -5.78929 -4.21987 29.3031
rtibia 48.8005
rfoot 14.9267 -8.83908
rtoes 6.382
lfemur -7.17592 1.48504 -13.5488
ltibia 42.7427
lfoot 15.1729 -3.77283
ltoes -29.8246
36
root 4.08138 22.6006 -12.7206 717.659 3.39465 -4.40322
lowerback 1.11315 -2.52605 0.155658
upperback 1.44814 -3.36708 -0.0764909
thorax 0.845851 -1.68182 -0.1531
lowerneck -14.1669 -3.88512 -2.36436
upperneck 5.65136 -5.56057 8.33378
head 4.30406 -2.30843 2.52026
rclavicle 2.7892e-014 -7.95139e-015
rhumerus -51.3783 20.3856 -76.4774
rradius 127.067
rwrist 3.80356
rhand -8.99347 26.8643
rfingers 7.12502
rthumb 16.9527 -2.41588
lclavicle 2.7892e-014 -7.95139e-015
lhumerus -36.5041 -7.51291 69.4133
lradius 138.095
lwrist 219.395
lhand -30.9284 20.3651
lfingers 7.12502
lthumb -4.21404 50.3031
rfemur -6.54907 -4.26791 29.152
rtibia 48.1763
rfoot 14.3999 -7.90218
rtoes 4.57771
lfemur -7.5979 2.08485 -13.5512
ltibia 42.0579
lfoot 14.0417 -3.14674
ltoes -28.9475
37
root 4.07306 22.7148 -12.5483 717.887 3.21911 -4.552
lowerback 1.45158 -2.4944 0.355883
upperback 1.56219 -3.32304 0.0109832
thorax 0.76733 -1.65846 -0.162265
lowerneck -14.6781 -3.90381 -2.28431
upperneck 6.00234 -5.61763 8.26818
head 4.49349 -2.31684 2.47385
rclavicle 2.03382e-014 6.36111e-015
rhumerus -51.8614 20.189 -76.7279
rradius 128.12
rwrist 2.43835
rhand -7.14181 26.6204
rfingers 7.12502
rthumb 18.7344 -2.49741
lclavicle 2.03382e-014 6.36111e-015
lhumerus -37.2268 -7.67637 69.7833
lradius 139.176
lwrist 219.483
lhand -31.5731 21.4674
lfingers 7.12502
lthumb -4.83651 51.3922
rfemur -7.40056 -4.20614 29.1226
rtibia 47.4363
rfoot 14.1366 -6.83555
rtoes 5.11261
lfemur -8.2224 2.67177 -13.4487
ltibia 41.4458
lfoot 13.1143 -2.77023
ltoes -28.8094
38
root 4.06479 22.8166 -12.3758 717.984 2.99227 -5.03422
lowerback 2.02109 -2.46208 0.910472
upperback 1.606 -3.26951 0.169147
thorax 0.472426 -1.62842 -0.283731
lowerneck -15.0316 -3.88816 -2.14492
upperneck 6.37364 -5.64088 8.18315
head 4.66001 -2.31163 2.41676
rclavicle -2.70844e-015 -2.38542e-015
rhumerus -52.6583 20.0427 -77.135
rradius 128.945
rwrist 1.31406
rhand -5.86295 26.7627
rfingers 7.12502
rthumb 19.9641 -2.23179
lclavicle -2.70844e-015 -2.38542e-015
lhumerus -38.1374 -7.85837 70.1412
lradius 140.008
lwrist 219.684
lhand -31.908 22.1817
lfingers 7.12502
lthumb -5.1599 52.0989
rfemur -8.11461 -4.06665 29.4534
rtibia 46.6714
rfoot 13.9622 -5.77069
rtoes 4.37596
lfemur -8.7365 3.19223 -12.9532
ltibia 40.8555
lfoot 12.3654 -2.73188
ltoes -29.8348
39
root 4.05674 22.9061 -12.2048 718.167 2.81146 -5.27661
lowerback 2.52716 -2.43457 1.19785
upperback 1.63152 -3.22073 0.2862
thorax 0.2074 -1.60341 -0.301842
lowerneck -15.3047 -3.8813 -2.07991
upperneck 6.59743 -5.66027 8.17949
head 4.77282 -2.30705 2.39898
rclavicle -2.66868e-014 -7.95139e-016
rhumerus -53.6015 19.9967 -77.5776
rradius 129.312
rwrist 1.10524
rhand -5.80445 27.3628
rfingers 7.12502
rthumb 20.0203 -1.62576
lclavicle -2.66868e-014 -7.95139e-016
lhumerus -38.9774 -8.00082 70.5805
lradius 140.513
lwrist 219.962
lhand -31.9715 21.5943
lfingers 7.12502
lthumb -5.22122 51.51
rfemur -8.94798 -3.87681 29.5163
rtibia 45.9747
rfoot 13.684 -4.92748
rtoes 2.73328
lfemur -9.3591 3.58273 -12.7544
ltibia 40.2973
lfoot 11.7692 -2.82742
ltoes -31.355
40
root 4.04866 22.9813 -12.034 718.352 2.63528 -5.29958
lowerback 3.01959 -2.42216 1.22552
upperback 1.64815 -3.1951 0.365904
thorax -0.0471614 -1.59182 -0.213968
lowerneck -15.4685 -3.84467 -2.05078
upperneck 6.74373 -5.62962 8.19652
head 4.84306 -2.28228 2.3998
rclavicle -1.70955e-014 -4.77083e-015
rhumerus -54.6065 20.0078 -78.0364
rradius 129.602
rwrist 0.876291
rhand -5.83742 27.7875
rfingers 7.12502
rthumb 19.9886 -1.20438
lclavicle -1.70955e-014 -4.77083e-015
lhumerus -39.8743 -8.11105 71.1328
lradius 140.621
lwrist 220.138
lhand -31.6986 20.4735
lfingers 7.12502
lthumb -4.95774 50.3955
rfemur -9.82102 -3.66799 29.327
rtibia 45.3847
rfoot 13.3859 -4.39571
rtoes 0.449179
lfemur -9.95474 3.89753 -12.7987
ltibia 39.7559
lfoot 11.2864 -2.853
ltoes -32.5901
41
root 4.04018 23.0419 -11.8636 718.617 2.50614 -5.20369
lowerback 3.39397 -2.41975 1.12515
upperback 1.66358 -3.18821 0.400939
thorax -0.232813 -1.5897 -0.105545
lowerneck -15.5855 -3.80351 -1.97048
upperneck 6.8361 -5.59964 8.21398
head 4.88777 -2.25895 2.39334
rclavicle -3.80176e-015 -2.38542e-015
rhumerus -55.6924 19.9796 -78.6128
rradius 129.821
rwrist 0.818265
rhand -6.19658 28.1747
rfingers 7.12502
rthumb 19.6434 -0.852845
lclavicle -3.80176e-015 -2.38542e-015
lhumerus -40.636 -8.11689 71.724
lradius 140.341
lwrist 220.191
lhand -31.3433 19.6395
lfingers 7.12502
lthumb -4.61468 49.5693
rfemur -10.8239 -3.46425 29.0064
rtibia 44.9273
rfoot 13.0104 -4.02132
rtoes -1.72206
lfemur -10.6574 4.08168 -12.9904
ltibia 39.2239
lfoot 10.9068 -2.79733
ltoes -33.5603
42
root 4.03272 23.091 -11.6917 718.977 2.36595 -5.16765
lowerback 3.65099 -2.41062 1.10664
upperback 1.65709 -3.1719 0.45405
thorax -0.378688 -1.58227 -0.029471
lowerneck -15.7221 -3.75709 -1.89783
upperneck 6.9445 -5.56257 8.23203
head 4.94055 -2.23132 2.38875
rclavicle -9.93923e-016 7.95139e-016
rhumerus -56.695 19.9108 -79.1344
rradius 129.942
rwrist 0.796786
rhand -6.76897 28.3805
rfingers 7.12502
rthumb 19.093 -0.702328
lclavicle -9.93923e-016 7.95139e-016
lhumerus -41.2327 -7.85698 72.1914
lradius 139.883
lwrist 220.054
lhand -31.0288 18.9376
lfingers 7.12502
lthumb -4.31094 48.8737
rfemur -11.9444 -3.18731 28.7505
rtibia 44.5624
rfoot 12.563 -3.88076
rtoes -3.3103
lfemur -11.4597 4.2701 -13.1152
ltibia 38.6992
lfoot 10.6135 -2.80287
ltoes -34.3545
43
root 4.02448 23.1317 -11.5184 719.366 2.25799 -5.07163
lowerback 3.87909 -2.41023 1.04907
upperback 1.61659 -3.169 0.468682
thorax -0.543501 -1.58162 0.0291584
lowerneck -15.833 -3.71549 -1.79236
upperneck 7.12392 -5.54193 8.22744
head 5.01058 -2.21086 2.37039
rclavicle 3.11595e-014 -7.95139e-016
rhumerus -57.677 19.7635 -79.69
rradius 129.924
rwrist 0.895418
rhand -6.75883 28.1374
rfingers 7.12502
rthumb 19.1028 -0.944449
lclavicle 3.11595e-014 -7.95139e-016
lhumerus -41.8166 -7.60032 72.7228
lradius 139.095
lwrist 219.747
lhand -30.3805 18.6676
lfingers 7.12502
lthumb -3.68493 48.6155
rfemur -13.0788 -2.92641 28.423
rtibia 44.2483
rfoot 12.0569 -3.85825
rtoes -4.53139
lfemur -12.2962 4.32639 -13.3023
ltibia 38.1814
lfoot 10.3425 -2.75143
ltoes -35.0365
44
root 4.01611 23.1642 -11.3442 719.681 2.16894 -4.94811
lowerback 4.16968 -2.40857 0.955229
upperback 1.59701 -3.16532 0.487375
thorax -0.719496 -1.58048 0.114401
lowerneck -15.7805 -3.6706 -1.7052
upperneck 7.07774 -5.49658 8.23076
head 4.98331 -2.18864 2.36243
rclavicle -2.80286e-014 1.59028e-015
rhumerus -58.6551 19.6154 -80.2516
rradius 129.828
rwrist 0.848014
rhand -6.71734 27.9186
rfingers 7.12502
rthumb 19.1427 -1.1593
lclavicle -2.80286e-014 1.59028e-015
lhumerus -42.3647 -7.19406 73.1663
lradius 138.293
lwrist 219.578
lhand -29.8117 18.1494
lfingers 7.12502
lthumb -3.13566 48.1061
rfemur -14.0898 -2.60475 28.0427
rtibia 43.9494
rfoot 11.5061 -4.03568
rtoes -5.0018
lfemur -13.0415 4.20363 -13.4916
ltibia 37.6676
lfoot 10.0932 -2.55622
ltoes -35.0563
45
root 4.00607 23.1899 -11.1689 719.791 2.07788 -4.63713
lowerback 4.68401 -2.39639 0.661418
upperback 1.59815 -3.15511 0.440168
thorax -0.99187 -1.57599 0.253093
lowerneck -15.4899 -3.62787 -1.56743
upperneck 6.77881 -5.43998 8.19861
head 4.83571 -2.17497 2.33978
rclavicle 2.48481e-015 6.36111e-015
rhumerus -59.7383 19.451 -80.9653
rradius 129.247
rwrist 1.45648
rhand -7.34375 28.1184
rfingers 7.12502
rthumb 18.5402 -1.01811
lclavicle 2.48481e-015 6.36111e-015
lhumerus -42.9848 -6.73657 73.5593
lradius 137.574
lwrist 219.458
lhand -29.3658 17.0612
lfingers 7.12502
lthumb -2.70499 47.0238
rfemur -14.8213 -2.12883 27.4283
rtibia 43.6749
rfoot 10.8066 -4.59873
rtoes -4.52591
lfemur -13.5266 3.97044 -13.8383
ltibia 37.1407
lfoot 9.83435 -2.32617
ltoes -34.443
46
root 3.99643 23.2111 -10.9946 719.755 2.03142 -4.36435
lowerback 5.3538 -2.39372 0.413358
upperback 1.62872 -3.15757 0.403167
thorax -1.3223 -1.57688 0.383869
lowerneck -15.0839 -3.59739 -1.47241
upperneck 6.34557 -5.38278 8.19408
head 4.6302 -2.16717 2.33451
rclavicle 2.89729e-014 -2.38542e-014
rhumerus -60.7743 19.2349 -81.5922
rradius 128.619
rwrist 2.0589
rhand -7.41627 27.93
rfingers 7.12502
rthumb 18.4704 -1.21307
lclavicle 2.89729e-014 -2.38542e-014
lhumerus -43.6104 -6.16247 73.9005
lradius 136.778
lwrist 219.259
lhand -29.1673 15.932
lfingers 7.12502
lthumb -2.51326 45.8969
rfemur -15.369 -1.58362 26.8421
rtibia 43.4459
rfoot 9.95508 -5.49766
rtoes -4.10212
lfemur -13.851 3.59377 -14.1084
ltibia 36.609
lfoot 9.64872 -2.06542
ltoes -33.398
